<?xml version="1.0" encoding="UTF-8"?>
<svg xmlns="http://www.w3.org/2000/svg" xmlns:xlink="http://www.w3.org/1999/xlink" width="96px" height="61px" viewBox="0 0 96 61" version="1.1">
<g id="surface1">
<path style=" stroke:none;fill-rule:nonzero;fill:rgb(100%,100%,100%);fill-opacity:1;" d="M 45.839844 20.460938 C 45.753906 20.214844 45.621094 20.011719 45.445312 19.855469 C 45.242188 19.675781 44.984375 19.59375 44.695312 19.625 C 44.617188 19.632812 44.480469 19.660156 44.046875 19.789062 C 43.734375 19.878906 43.363281 19.996094 42.945312 20.132812 C 42.523438 20.269531 42.070312 20.421875 41.589844 20.589844 C 41.113281 20.757812 40.660156 20.917969 40.230469 21.074219 L 39.097656 21.484375 C 38.753906 21.605469 38.542969 21.6875 38.425781 21.730469 L 38.40625 21.738281 C 37.542969 22.132812 37.363281 22.765625 37.363281 23.230469 C 37.363281 23.578125 37.460938 23.90625 37.652344 24.207031 C 37.855469 24.527344 38.152344 24.695312 38.515625 24.695312 C 38.558594 24.695312 38.605469 24.691406 38.652344 24.6875 L 38.703125 24.683594 L 44.710938 23.675781 C 45.277344 23.570312 45.652344 23.304688 45.820312 22.878906 C 45.960938 22.527344 46.03125 22.132812 46.03125 21.707031 C 46.03125 21.546875 46.019531 21.351562 45.992188 21.132812 C 45.964844 20.90625 45.914062 20.679688 45.839844 20.464844 Z M 45.839844 20.460938 "/>
<path style=" stroke:none;fill-rule:nonzero;fill:rgb(100%,100%,100%);fill-opacity:1;" d="M 48.082031 4.871094 C 48.019531 4.648438 47.917969 4.457031 47.789062 4.304688 C 47.667969 4.167969 47.449219 4.011719 47.082031 4.050781 L 45.648438 4.203125 C 45.5 4.21875 45.332031 4.25 45.128906 4.296875 C 44.921875 4.347656 44.722656 4.421875 44.539062 4.519531 C 44.351562 4.617188 44.183594 4.742188 44.042969 4.886719 C 43.867188 5.066406 43.777344 5.304688 43.777344 5.570312 L 43.777344 5.722656 L 43.78125 5.773438 C 43.945312 6.828125 44.160156 7.886719 44.414062 8.917969 C 44.65625 9.910156 44.78125 10.949219 44.78125 12.007812 C 44.78125 13.234375 44.496094 14.234375 43.929688 14.976562 C 43.378906 15.699219 42.449219 16.136719 41.175781 16.269531 C 40.554688 16.335938 40.042969 16.234375 39.65625 15.96875 C 39.253906 15.6875 38.933594 15.300781 38.695312 14.808594 C 38.453125 14.300781 38.277344 13.699219 38.171875 13.023438 C 38.066406 12.332031 38 11.699219 37.972656 11.140625 C 37.949219 10.582031 37.9375 10.097656 37.9375 9.699219 C 37.9375 9.398438 37.945312 9.007812 37.960938 8.539062 C 37.976562 8.046875 37.988281 7.574219 37.988281 7.128906 C 37.988281 6.410156 37.652344 6.121094 37.371094 6.003906 C 37.046875 5.871094 36.65625 5.824219 36.222656 5.871094 C 35.738281 5.921875 35.359375 6.0625 35.089844 6.285156 C 34.808594 6.519531 34.636719 6.894531 34.578125 7.398438 C 34.507812 7.804688 34.472656 8.230469 34.472656 8.660156 L 34.472656 9.871094 C 34.472656 10.609375 34.5 11.394531 34.550781 12.199219 C 34.601562 13.007812 34.703125 13.804688 34.855469 14.5625 C 35.011719 15.328125 35.234375 16.054688 35.519531 16.71875 C 35.8125 17.40625 36.214844 18.003906 36.722656 18.492188 C 37.234375 18.988281 37.867188 19.359375 38.605469 19.605469 C 39.117188 19.773438 39.703125 19.855469 40.351562 19.855469 C 40.636719 19.855469 40.933594 19.84375 41.242188 19.808594 C 42.300781 19.699219 43.21875 19.453125 43.976562 19.085938 C 44.742188 18.714844 45.390625 18.242188 45.910156 17.675781 C 46.429688 17.113281 46.84375 16.464844 47.140625 15.746094 C 47.433594 15.046875 47.660156 14.292969 47.824219 13.503906 C 47.988281 12.71875 48.089844 11.902344 48.132812 11.070312 C 48.175781 10.25 48.195312 9.421875 48.195312 8.621094 L 48.195312 5.980469 C 48.195312 5.839844 48.191406 5.675781 48.183594 5.488281 C 48.171875 5.28125 48.140625 5.070312 48.085938 4.871094 Z M 48.082031 4.871094 "/>
<path style=" stroke:none;fill-rule:nonzero;fill:rgb(100%,100%,100%);fill-opacity:1;" d="M 61.769531 4.921875 C 61.398438 4.253906 60.878906 3.726562 60.226562 3.347656 C 59.566406 2.96875 58.703125 2.832031 57.667969 2.941406 C 57.003906 3.011719 56.410156 3.191406 55.894531 3.480469 C 55.394531 3.761719 54.941406 4.105469 54.554688 4.5 C 54.171875 4.886719 53.835938 5.308594 53.554688 5.746094 C 53.285156 6.167969 53.046875 6.578125 52.839844 6.960938 C 52.742188 7.140625 52.652344 7.3125 52.570312 7.46875 C 52.589844 7.1875 52.621094 6.90625 52.667969 6.628906 C 52.753906 6.09375 52.796875 5.542969 52.796875 4.992188 C 52.796875 4.660156 52.726562 4.386719 52.589844 4.1875 C 52.449219 3.980469 52.265625 3.835938 52.042969 3.75 C 51.847656 3.679688 51.625 3.640625 51.382812 3.636719 C 51.160156 3.636719 50.929688 3.644531 50.703125 3.667969 C 50.164062 3.726562 49.699219 3.890625 49.328125 4.160156 C 48.914062 4.457031 48.703125 4.9375 48.703125 5.582031 L 48.703125 21.179688 C 48.703125 21.621094 48.722656 21.957031 48.757812 22.210938 C 48.800781 22.535156 48.921875 22.777344 49.109375 22.933594 C 49.292969 23.085938 49.550781 23.160156 49.875 23.160156 L 49.882812 23.160156 C 50.148438 23.160156 50.480469 23.136719 50.894531 23.09375 L 51.046875 23.078125 C 51.332031 23.050781 51.578125 22.917969 51.757812 22.695312 C 51.90625 22.511719 52.023438 22.289062 52.109375 22.035156 C 52.195312 21.796875 52.25 21.554688 52.277344 21.308594 C 52.304688 21.089844 52.324219 20.902344 52.339844 20.746094 C 52.390625 20.21875 52.460938 19.496094 52.554688 18.574219 C 52.644531 17.664062 52.78125 16.652344 52.953125 15.566406 C 53.128906 14.484375 53.347656 13.363281 53.605469 12.238281 C 53.859375 11.117188 54.183594 10.078125 54.566406 9.152344 C 54.945312 8.242188 55.394531 7.472656 55.898438 6.863281 C 56.375 6.292969 56.902344 5.984375 57.507812 5.921875 C 57.851562 5.882812 58.105469 5.945312 58.289062 6.109375 C 58.496094 6.296875 58.65625 6.542969 58.765625 6.847656 C 58.878906 7.175781 58.953125 7.53125 58.984375 7.910156 C 59.019531 8.304688 59.035156 8.664062 59.035156 8.972656 L 59.035156 9.5 C 59.035156 9.652344 59.027344 9.8125 59.011719 9.988281 L 58.355469 20.921875 L 58.355469 21.070312 C 58.355469 21.394531 58.476562 21.671875 58.707031 21.894531 C 58.945312 22.121094 59.261719 22.214844 59.644531 22.175781 L 61.378906 21.992188 C 61.746094 21.953125 62.054688 21.796875 62.300781 21.523438 C 62.550781 21.25 62.675781 20.921875 62.675781 20.558594 L 62.675781 9.5625 C 62.675781 8.765625 62.613281 7.949219 62.492188 7.144531 C 62.371094 6.316406 62.128906 5.566406 61.765625 4.917969 Z M 61.769531 4.921875 "/>
<path style=" stroke:none;fill-rule:nonzero;fill:rgb(100%,100%,100%);fill-opacity:1;" d="M 75.449219 1.488281 C 75.144531 1.191406 74.71875 1.070312 74.1875 1.125 L 71.019531 1.460938 C 69.835938 1.585938 68.730469 1.867188 67.730469 2.296875 C 66.722656 2.734375 65.847656 3.324219 65.128906 4.050781 C 64.402344 4.78125 63.832031 5.652344 63.421875 6.644531 C 63.015625 7.632812 62.808594 8.765625 62.808594 10.011719 C 62.808594 11.160156 63 12.183594 63.375 13.0625 C 63.753906 13.949219 64.289062 14.691406 64.972656 15.261719 C 65.648438 15.835938 66.476562 16.25 67.425781 16.496094 C 68.089844 16.664062 68.804688 16.75 69.554688 16.75 C 69.867188 16.75 70.183594 16.734375 70.503906 16.707031 L 73.449219 16.421875 C 73.859375 16.378906 74.199219 16.222656 74.464844 15.953125 C 74.734375 15.675781 74.871094 15.320312 74.871094 14.898438 C 74.871094 14.515625 74.84375 14.167969 74.789062 13.871094 C 74.730469 13.539062 74.613281 13.257812 74.4375 13.03125 C 74.253906 12.789062 73.992188 12.617188 73.667969 12.527344 C 73.363281 12.441406 72.992188 12.421875 72.527344 12.472656 C 72.1875 12.507812 71.832031 12.558594 71.472656 12.621094 C 71.128906 12.679688 70.789062 12.730469 70.464844 12.761719 C 69.917969 12.820312 69.394531 12.792969 68.914062 12.679688 C 68.4375 12.570312 68.015625 12.378906 67.664062 12.113281 C 67.308594 11.851562 67.023438 11.511719 66.8125 11.113281 C 66.605469 10.71875 66.5 10.238281 66.5 9.691406 C 66.5 8.152344 66.855469 6.953125 67.566406 6.132812 C 68.265625 5.320312 69.265625 4.835938 70.535156 4.703125 C 70.824219 4.671875 71.125 4.675781 71.425781 4.714844 C 71.75 4.753906 72.082031 4.800781 72.414062 4.847656 C 72.734375 4.894531 73.0625 4.9375 73.414062 4.984375 C 73.761719 5.027344 74.113281 5.03125 74.457031 4.996094 C 74.804688 4.957031 75.082031 4.855469 75.28125 4.6875 C 75.472656 4.53125 75.617188 4.332031 75.714844 4.097656 C 75.804688 3.886719 75.855469 3.648438 75.875 3.394531 C 75.894531 3.164062 75.902344 2.933594 75.902344 2.714844 C 75.902344 2.1875 75.75 1.777344 75.453125 1.484375 Z M 75.449219 1.488281 "/>
<path style=" stroke:none;fill-rule:nonzero;fill:rgb(100%,100%,100%);fill-opacity:1;" d="M 90.3125 10.261719 C 90.265625 10.050781 90.203125 9.835938 90.121094 9.628906 C 90.035156 9.40625 89.925781 9.210938 89.800781 9.046875 C 89.570312 8.757812 89.316406 8.71875 89.144531 8.734375 C 89.039062 8.746094 88.941406 8.761719 88.84375 8.789062 L 89.527344 1.261719 L 89.527344 1.105469 C 89.527344 0.808594 89.417969 0.558594 89.210938 0.386719 C 89.035156 0.242188 88.808594 0.136719 88.535156 0.0742188 C 88.28125 0.015625 88.019531 -0.0078125 87.746094 0 C 87.488281 0.0117188 87.28125 0.0234375 87.109375 0.0429688 C 86.933594 0.0625 86.746094 0.0898438 86.539062 0.128906 C 86.320312 0.171875 86.109375 0.242188 85.90625 0.339844 C 85.691406 0.445312 85.507812 0.585938 85.363281 0.753906 C 85.195312 0.953125 85.109375 1.203125 85.109375 1.496094 L 85.011719 9.972656 L 79.640625 11.597656 L 78.867188 1.3125 C 78.824219 0.835938 78.59375 0.480469 78.199219 0.289062 C 77.851562 0.113281 77.480469 0.046875 77.101562 0.0859375 C 76.59375 0.140625 76.261719 0.339844 76.121094 0.675781 C 76.011719 0.933594 75.957031 1.246094 75.957031 1.605469 L 75.957031 20.527344 C 75.957031 20.808594 76.042969 21.046875 76.203125 21.230469 C 76.347656 21.390625 76.527344 21.511719 76.738281 21.589844 C 76.921875 21.65625 77.125 21.699219 77.339844 21.71875 C 77.429688 21.722656 77.519531 21.726562 77.605469 21.726562 C 77.714844 21.726562 77.824219 21.722656 77.925781 21.710938 L 78.679688 21.632812 C 79.070312 21.589844 79.429688 21.417969 79.75 21.113281 C 80.082031 20.792969 80.253906 20.441406 80.253906 20.066406 L 79.917969 15.488281 L 84.984375 13.535156 C 84.984375 14.234375 84.976562 14.945312 84.960938 15.660156 C 84.945312 16.515625 84.933594 17.394531 84.933594 18.273438 C 84.933594 18.675781 85.003906 18.984375 85.148438 19.210938 C 85.328125 19.496094 85.683594 19.613281 86.199219 19.558594 C 86.542969 19.523438 86.90625 19.394531 87.273438 19.175781 C 87.6875 18.933594 87.925781 18.5625 87.96875 18.105469 L 88.527344 12.167969 C 88.613281 12.140625 88.707031 12.113281 88.8125 12.085938 C 89.027344 12.027344 89.25 11.949219 89.460938 11.855469 C 89.695312 11.753906 89.898438 11.621094 90.070312 11.464844 C 90.277344 11.269531 90.386719 11.035156 90.386719 10.777344 C 90.386719 10.652344 90.363281 10.484375 90.316406 10.261719 Z M 90.3125 10.261719 "/>
<path style=" stroke:none;fill-rule:nonzero;fill:rgb(100%,100%,100%);fill-opacity:1;" d="M 10.648438 23.605469 C 10.375 23.238281 10 23.070312 9.5625 23.113281 L 9.441406 23.125 L 3.660156 24.355469 L 4.808594 6.632812 L 4.808594 6.519531 C 4.808594 6.0625 4.574219 5.816406 4.375 5.691406 C 4.164062 5.5625 3.910156 5.464844 3.617188 5.40625 C 3.335938 5.351562 3.046875 5.332031 2.753906 5.351562 C 2.488281 5.367188 2.269531 5.386719 2.09375 5.40625 C 0.722656 5.550781 0 6.367188 0 7.765625 L 0 26.496094 C 0 26.804688 0.09375 27.066406 0.28125 27.277344 C 0.4375 27.457031 0.632812 27.601562 0.859375 27.710938 C 1.078125 27.816406 1.316406 27.882812 1.566406 27.914062 C 1.707031 27.929688 1.839844 27.941406 1.964844 27.941406 C 2.050781 27.941406 2.136719 27.933594 2.21875 27.929688 L 8.554688 27.660156 C 8.652344 27.671875 8.738281 27.675781 8.816406 27.675781 C 8.910156 27.675781 9.011719 27.671875 9.121094 27.660156 C 9.507812 27.621094 9.832031 27.484375 10.089844 27.257812 C 10.332031 27.046875 10.523438 26.796875 10.660156 26.503906 C 10.789062 26.230469 10.882812 25.925781 10.933594 25.59375 C 10.984375 25.277344 11.011719 24.980469 11.011719 24.714844 C 11.011719 24.304688 10.890625 23.933594 10.652344 23.605469 Z M 10.648438 23.605469 "/>
<path style=" stroke:none;fill-rule:nonzero;fill:rgb(100%,100%,100%);fill-opacity:1;" d="M 49.296875 28.371094 C 48.644531 27.796875 47.875 27.367188 47.007812 27.085938 C 46.136719 26.808594 45.183594 26.71875 44.167969 26.828125 L 39.078125 27.363281 C 38.535156 27.417969 38.09375 27.648438 37.773438 28.039062 C 37.457031 28.421875 37.300781 28.882812 37.300781 29.417969 L 37.382812 48.359375 C 37.382812 48.699219 37.496094 48.980469 37.710938 49.1875 C 37.902344 49.371094 38.148438 49.460938 38.441406 49.460938 C 38.492188 49.460938 38.546875 49.457031 38.601562 49.453125 L 40.863281 49.214844 C 41.191406 49.179688 41.457031 49.050781 41.65625 48.832031 C 41.855469 48.613281 41.953125 48.34375 41.953125 48.035156 L 41.953125 47.949219 L 41.519531 41.394531 C 41.996094 41.4375 42.484375 41.480469 42.972656 41.527344 C 43.601562 41.589844 44.246094 41.585938 44.898438 41.519531 C 45.933594 41.410156 46.871094 41.09375 47.683594 40.574219 C 48.488281 40.0625 49.171875 39.417969 49.71875 38.652344 C 50.261719 37.894531 50.675781 37.039062 50.953125 36.113281 C 51.226562 35.191406 51.367188 34.246094 51.367188 33.300781 C 51.367188 32.289062 51.1875 31.351562 50.828125 30.507812 C 50.464844 29.664062 49.953125 28.945312 49.296875 28.371094 Z M 47.085938 33.683594 C 47.085938 34.089844 47.007812 34.546875 46.855469 35.046875 C 46.703125 35.546875 46.480469 36.023438 46.203125 36.457031 C 45.929688 36.886719 45.59375 37.257812 45.214844 37.5625 C 44.851562 37.855469 44.453125 38.019531 43.996094 38.070312 C 43.519531 38.121094 43.050781 38.132812 42.605469 38.105469 C 42.222656 38.082031 41.835938 38.070312 41.449219 38.0625 L 41.078125 30.4375 L 41.261719 30.417969 C 41.984375 30.34375 42.71875 30.3125 43.433594 30.332031 C 44.128906 30.347656 44.761719 30.46875 45.3125 30.6875 C 45.847656 30.898438 46.269531 31.234375 46.59375 31.707031 C 46.917969 32.175781 47.082031 32.839844 47.082031 33.683594 Z M 47.085938 33.683594 "/>
<path style=" stroke:none;fill-rule:nonzero;fill:rgb(100%,100%,100%);fill-opacity:1;" d="M 66.007812 27 C 65.324219 26.308594 64.472656 25.789062 63.476562 25.457031 C 62.484375 25.121094 61.339844 25.019531 60.078125 25.152344 C 58.824219 25.285156 57.65625 25.632812 56.613281 26.1875 C 55.570312 26.738281 54.667969 27.453125 53.929688 28.308594 C 53.191406 29.164062 52.609375 30.15625 52.199219 31.261719 C 51.785156 32.363281 51.578125 33.550781 51.578125 34.785156 C 51.578125 35.894531 51.78125 36.941406 52.1875 37.898438 C 52.59375 38.859375 53.164062 39.695312 53.878906 40.382812 C 54.597656 41.074219 55.457031 41.601562 56.445312 41.945312 C 57.175781 42.203125 57.960938 42.332031 58.777344 42.332031 C 59.058594 42.332031 59.34375 42.316406 59.632812 42.285156 C 60.90625 42.152344 62.078125 41.824219 63.117188 41.3125 C 64.160156 40.800781 65.058594 40.125 65.789062 39.308594 C 66.519531 38.492188 67.089844 37.523438 67.484375 36.4375 C 67.875 35.355469 68.074219 34.164062 68.074219 32.890625 C 68.074219 31.617188 67.898438 30.554688 67.554688 29.558594 C 67.207031 28.550781 66.6875 27.691406 66.007812 27 Z M 64.222656 33.140625 C 64.222656 33.808594 64.121094 34.460938 63.921875 35.078125 C 63.726562 35.691406 63.433594 36.242188 63.050781 36.722656 C 62.667969 37.195312 62.199219 37.59375 61.65625 37.898438 C 61.113281 38.203125 60.488281 38.398438 59.792969 38.46875 C 59.140625 38.539062 58.535156 38.472656 57.992188 38.277344 C 57.449219 38.078125 56.972656 37.78125 56.578125 37.382812 C 56.183594 36.984375 55.878906 36.503906 55.664062 35.953125 C 55.453125 35.394531 55.34375 34.789062 55.34375 34.144531 C 55.34375 32.691406 55.761719 31.5 56.589844 30.601562 C 57.417969 29.703125 58.574219 29.171875 60.03125 29.019531 C 60.726562 28.945312 61.339844 28.996094 61.855469 29.167969 C 62.363281 29.339844 62.796875 29.609375 63.140625 29.96875 C 63.488281 30.332031 63.757812 30.785156 63.941406 31.320312 C 64.128906 31.859375 64.222656 32.472656 64.222656 33.140625 Z M 64.222656 33.140625 "/>
<path style=" stroke:none;fill-rule:nonzero;fill:rgb(100%,100%,100%);fill-opacity:1;" d="M 82.71875 25.242188 C 82.035156 24.554688 81.183594 24.035156 80.1875 23.699219 C 79.191406 23.367188 78.050781 23.265625 76.789062 23.398438 C 75.53125 23.527344 74.367188 23.875 73.324219 24.429688 C 72.28125 24.980469 71.378906 25.695312 70.640625 26.550781 C 69.902344 27.40625 69.320312 28.402344 68.90625 29.503906 C 68.496094 30.609375 68.285156 31.792969 68.285156 33.03125 C 68.285156 34.136719 68.492188 35.1875 68.898438 36.144531 C 69.304688 37.101562 69.875 37.9375 70.589844 38.628906 C 71.304688 39.320312 72.167969 39.847656 73.152344 40.191406 C 73.886719 40.449219 74.667969 40.578125 75.488281 40.578125 C 75.769531 40.578125 76.050781 40.5625 76.339844 40.53125 C 77.613281 40.398438 78.785156 40.070312 79.828125 39.558594 C 80.871094 39.046875 81.769531 38.371094 82.5 37.550781 C 83.230469 36.734375 83.800781 35.769531 84.195312 34.683594 C 84.585938 33.601562 84.785156 32.410156 84.785156 31.132812 C 84.785156 29.859375 84.613281 28.800781 84.265625 27.800781 C 83.917969 26.792969 83.398438 25.933594 82.71875 25.242188 Z M 80.933594 31.382812 C 80.933594 32.054688 80.832031 32.703125 80.632812 33.324219 C 80.4375 33.933594 80.140625 34.488281 79.757812 34.964844 C 79.375 35.441406 78.90625 35.835938 78.363281 36.144531 C 77.824219 36.449219 77.199219 36.640625 76.5 36.714844 C 75.847656 36.78125 75.242188 36.71875 74.699219 36.519531 C 74.15625 36.324219 73.679688 36.023438 73.289062 35.625 C 72.894531 35.230469 72.585938 34.746094 72.375 34.195312 C 72.160156 33.640625 72.050781 33.03125 72.050781 32.386719 C 72.050781 30.933594 72.472656 29.742188 73.296875 28.84375 C 74.125 27.949219 75.285156 27.414062 76.742188 27.261719 C 76.945312 27.238281 77.144531 27.230469 77.332031 27.230469 C 77.789062 27.230469 78.199219 27.289062 78.5625 27.410156 C 79.074219 27.582031 79.507812 27.851562 79.847656 28.210938 C 80.195312 28.574219 80.464844 29.03125 80.648438 29.5625 C 80.839844 30.105469 80.933594 30.71875 80.933594 31.386719 Z M 80.933594 31.382812 "/>
<path style=" stroke:none;fill-rule:nonzero;fill:rgb(100%,100%,100%);fill-opacity:1;" d="M 95.652344 39.796875 C 95.390625 39.449219 95.03125 39.289062 94.613281 39.332031 L 94.5 39.34375 L 88.703125 40.566406 L 89.847656 23.03125 L 89.847656 22.925781 C 89.847656 22.492188 89.625 22.265625 89.4375 22.148438 C 89.234375 22.019531 88.988281 21.929688 88.703125 21.871094 C 88.429688 21.816406 88.144531 21.796875 87.859375 21.816406 C 87.589844 21.835938 87.375 21.851562 87.203125 21.871094 C 85.871094 22.011719 85.167969 22.800781 85.167969 24.152344 L 85.167969 42.617188 C 85.167969 42.910156 85.257812 43.160156 85.4375 43.359375 C 85.589844 43.53125 85.777344 43.671875 85.996094 43.773438 C 86.210938 43.875 86.441406 43.941406 86.683594 43.96875 C 86.816406 43.988281 86.949219 43.996094 87.070312 43.996094 C 87.15625 43.996094 87.238281 43.992188 87.316406 43.984375 L 93.609375 43.71875 C 93.703125 43.726562 93.789062 43.734375 93.867188 43.734375 C 93.957031 43.738281 94.054688 43.734375 94.164062 43.722656 C 94.535156 43.683594 94.851562 43.554688 95.101562 43.335938 C 95.335938 43.132812 95.519531 42.886719 95.652344 42.605469 C 95.78125 42.339844 95.871094 42.042969 95.925781 41.71875 C 95.976562 41.410156 96 41.121094 96 40.859375 C 96 40.464844 95.882812 40.105469 95.648438 39.792969 Z M 95.652344 39.796875 "/>
<path style=" stroke:none;fill-rule:nonzero;fill:rgb(26.274511%,60.784316%,18.039216%);fill-opacity:1;" d="M 37.242188 54.839844 L 37.242188 54.820312 C 37.199219 54.523438 37.160156 54.238281 37.128906 53.972656 C 36.882812 51.886719 36.464844 50.054688 35.851562 48.378906 C 35.261719 46.765625 34.484375 45.253906 33.546875 43.886719 C 33.054688 43.164062 32.523438 42.496094 31.972656 41.898438 C 31.707031 41.609375 31.417969 41.347656 31.097656 41.089844 C 31.050781 41.054688 31.007812 41.019531 30.964844 40.988281 C 33.480469 35.210938 34.632812 28.917969 34.292969 22.773438 C 34.101562 19.320312 33.5 16.097656 32.503906 13.195312 C 31.496094 10.253906 30.148438 7.796875 28.511719 5.890625 C 28.058594 5.371094 27.546875 4.851562 26.832031 4.609375 C 24.734375 3.894531 22.726562 5.886719 21.394531 7.203125 L 21.335938 7.261719 C 21.261719 7.335938 21.1875 7.410156 21.121094 7.476562 C 20.015625 8.558594 18.964844 9.816406 18.003906 11.21875 C 16.269531 13.75 14.828125 16.695312 13.722656 19.96875 C 11.683594 26.007812 11.144531 32.613281 12.160156 39.0625 C 12.203125 39.332031 12.25 39.609375 12.304688 39.886719 C 12.175781 39.976562 12.058594 40.066406 11.945312 40.152344 C 11.859375 40.214844 11.78125 40.277344 11.707031 40.328125 C 10.992188 40.816406 10.316406 41.355469 9.695312 41.925781 C 8.429688 43.085938 7.332031 44.433594 6.4375 45.925781 C 5.535156 47.429688 4.847656 49.078125 4.398438 50.824219 C 3.894531 52.761719 3.667969 54.570312 3.699219 56.351562 L 3.710938 56.902344 L 4.238281 57.054688 C 4.933594 57.253906 5.5 56.785156 5.710938 56.605469 C 6.222656 56.179688 6.71875 55.742188 7.210938 55.3125 C 8.601562 54.085938 9.917969 52.929688 11.503906 52.042969 C 12.597656 51.425781 13.710938 50.933594 14.804688 50.578125 C 15.378906 50.394531 15.96875 50.234375 16.558594 50.105469 C 16.5625 50.105469 16.566406 50.101562 16.570312 50.101562 C 16.511719 51.652344 16.589844 53.242188 16.804688 54.832031 C 16.929688 55.761719 17.105469 56.691406 17.324219 57.59375 C 17.347656 57.6875 17.371094 57.808594 17.398438 57.949219 L 17.402344 57.964844 C 17.617188 59.050781 17.976562 60.863281 19.347656 60.972656 L 19.363281 60.972656 C 19.386719 60.972656 19.410156 60.976562 19.4375 60.976562 C 19.761719 60.976562 20.03125 60.84375 20.191406 60.761719 C 20.34375 60.6875 20.503906 60.609375 20.664062 60.507812 C 21.433594 60.035156 21.792969 59.328125 22.113281 58.703125 L 22.171875 58.589844 C 22.613281 57.734375 22.976562 56.855469 23.253906 55.972656 C 23.777344 54.300781 24.066406 52.496094 24.105469 50.601562 C 24.421875 50.542969 24.851562 50.464844 25.230469 50.210938 C 25.339844 50.140625 25.441406 50.054688 25.527344 49.960938 C 25.601562 50.019531 25.675781 50.078125 25.75 50.132812 C 25.933594 50.28125 26.144531 50.445312 26.355469 50.585938 C 26.511719 50.695312 26.675781 50.804688 26.835938 50.910156 C 27.226562 51.171875 27.628906 51.441406 28.007812 51.714844 C 29.078125 52.488281 30.085938 53.378906 31.003906 54.363281 C 31.992188 55.421875 32.785156 56.417969 33.425781 57.402344 C 33.660156 57.765625 33.867188 58.148438 34.085938 58.5625 C 34.464844 59.269531 34.859375 60.003906 35.421875 60.644531 C 35.667969 60.921875 35.9375 60.96875 36.121094 60.957031 C 36.410156 60.941406 36.660156 60.785156 36.824219 60.507812 C 37.109375 60.023438 37.300781 59.472656 37.402344 58.828125 C 37.613281 57.515625 37.417969 56.097656 37.242188 54.84375 Z M 27.992188 46.339844 L 28.003906 46.320312 C 28.714844 45.277344 29.355469 44.222656 29.910156 43.183594 C 30.007812 43.296875 30.101562 43.40625 30.183594 43.5 C 30.667969 44.054688 31.105469 44.648438 31.492188 45.253906 C 32.296875 46.519531 32.941406 47.902344 33.414062 49.359375 C 33.90625 50.886719 34.261719 52.460938 34.464844 54.046875 C 33.980469 53.433594 33.484375 52.878906 32.964844 52.363281 C 31.5 50.90625 29.304688 48.921875 26.777344 48.054688 C 27.207031 47.492188 27.605469 46.910156 27.992188 46.339844 Z M 20.5625 38.40625 C 20.347656 38.40625 20.003906 38.484375 19.734375 38.902344 C 18.984375 40.066406 18.367188 41.429688 17.738281 43.320312 C 17.472656 44.121094 17.246094 44.980469 17.066406 45.875 C 17.023438 45.734375 16.980469 45.59375 16.9375 45.457031 C 16.792969 45 16.644531 44.527344 16.523438 44.074219 C 16.132812 42.636719 15.820312 41.164062 15.589844 39.699219 C 15.09375 36.5625 14.933594 33.675781 15.101562 30.882812 C 15.347656 26.792969 16.191406 22.902344 17.609375 19.3125 C 19.523438 20.023438 21.613281 20.347656 23.597656 20.621094 C 24.828125 20.792969 26.144531 20.910156 27.730469 20.992188 C 28.339844 21.027344 28.996094 21.054688 29.789062 21.082031 C 29.910156 21.085938 30.035156 21.09375 30.15625 21.101562 L 30.1875 21.101562 C 30.355469 21.113281 30.539062 21.125 30.726562 21.132812 C 31.128906 24.96875 30.898438 28.929688 30.050781 32.917969 C 29.464844 35.65625 28.542969 38.394531 27.226562 41.285156 C 26.613281 42.636719 25.914062 43.972656 25.15625 45.253906 C 24.859375 45.757812 24.53125 46.265625 24.207031 46.761719 C 24.105469 46.921875 24.003906 47.082031 23.902344 47.238281 C 23.894531 47.164062 23.890625 47.066406 23.886719 46.953125 C 23.882812 46.804688 23.878906 46.675781 23.863281 46.558594 C 23.777344 45.90625 23.664062 45.230469 23.53125 44.542969 C 23.367188 43.6875 23.140625 42.785156 22.804688 41.617188 L 22.761719 41.46875 C 22.488281 40.523438 22.152344 39.34375 21.117188 38.601562 C 21.054688 38.558594 20.886719 38.433594 20.632812 38.410156 C 20.609375 38.410156 20.589844 38.410156 20.5625 38.410156 Z M 24.773438 8.800781 C 25.074219 8.558594 25.40625 8.332031 25.726562 8.109375 C 25.757812 8.089844 25.789062 8.066406 25.824219 8.042969 C 25.847656 8.074219 25.875 8.105469 25.898438 8.136719 C 26.148438 8.433594 26.40625 8.742188 26.628906 9.050781 C 27.078125 9.675781 27.5 10.351562 27.882812 11.066406 C 28.582031 12.367188 29.160156 13.828125 29.648438 15.523438 C 29.71875 15.761719 29.785156 16.007812 29.847656 16.257812 C 29.589844 16.242188 29.328125 16.230469 29.078125 16.21875 L 29.007812 16.21875 C 28.632812 16.203125 28.25 16.1875 27.882812 16.152344 C 26.597656 16.035156 25.527344 15.925781 24.453125 15.769531 C 23.59375 15.644531 22.726562 15.472656 21.890625 15.300781 L 21.773438 15.277344 C 21.554688 15.234375 21.335938 15.191406 21.121094 15.148438 L 21.03125 15.132812 C 20.589844 15.046875 20.167969 14.964844 19.769531 14.84375 C 19.890625 14.636719 20.015625 14.433594 20.136719 14.234375 C 21.0625 12.726562 22.007812 11.476562 23.03125 10.410156 C 23.589844 9.824219 24.175781 9.285156 24.773438 8.804688 Z M 19.582031 49.207031 C 19.695312 47.628906 19.976562 45.972656 20.441406 44.140625 C 20.464844 44.246094 20.484375 44.347656 20.503906 44.453125 C 20.925781 46.582031 21.117188 48.242188 21.128906 49.824219 C 21.136719 51.574219 20.925781 53.21875 20.5 54.710938 C 20.355469 55.222656 20.195312 55.695312 20.023438 56.136719 C 19.90625 55.578125 19.808594 55.015625 19.730469 54.449219 C 19.5 52.773438 19.449219 51.011719 19.582031 49.210938 Z M 14.910156 47.847656 C 14.382812 48.003906 13.847656 48.1875 13.285156 48.398438 C 11.789062 48.96875 10.359375 49.703125 9.042969 50.582031 C 8.277344 51.09375 7.542969 51.65625 6.851562 52.269531 C 6.886719 52.074219 6.925781 51.875 6.96875 51.679688 C 7.328125 50.066406 7.886719 48.578125 8.628906 47.257812 C 9.347656 45.980469 10.230469 44.804688 11.25 43.757812 C 11.757812 43.242188 12.300781 42.753906 12.867188 42.308594 C 13.054688 42.980469 13.261719 43.664062 13.492188 44.34375 L 13.503906 44.375 C 13.878906 45.484375 14.300781 46.726562 14.910156 47.847656 Z M 14.910156 47.847656 "/>
<path style=" stroke:none;fill-rule:nonzero;fill:rgb(100%,100%,100%);fill-opacity:1;" d="M 9.941406 35.859375 L 9.90625 35.382812 C 9.859375 34.769531 9.882812 34.15625 9.902344 33.5 C 9.921875 32.921875 9.945312 32.320312 9.914062 31.710938 C 9.886719 31.230469 9.53125 30.828125 9.046875 30.734375 C 8.5625 30.644531 8.105469 30.878906 7.902344 31.320312 C 6.828125 33.691406 7.109375 36.757812 8.660156 39.53125 C 8.796875 39.777344 9.050781 39.9375 9.335938 39.960938 C 9.359375 39.960938 9.382812 39.964844 9.40625 39.964844 C 9.507812 39.964844 9.605469 39.945312 9.699219 39.914062 C 10.101562 39.769531 10.335938 39.382812 10.269531 38.964844 C 10.097656 37.957031 10.019531 36.890625 9.945312 35.855469 Z M 9.941406 35.859375 "/>
<path style=" stroke:none;fill-rule:nonzero;fill:rgb(100%,100%,100%);fill-opacity:1;" d="M 16.898438 6.914062 C 16.46875 6.535156 15.871094 6.492188 15.410156 6.8125 C 12.125 9.085938 10.078125 13.367188 9.941406 18.265625 C 9.929688 18.710938 10.246094 19.101562 10.695312 19.195312 C 10.738281 19.203125 10.777344 19.210938 10.816406 19.210938 C 10.84375 19.214844 10.867188 19.214844 10.894531 19.214844 C 11.269531 19.214844 11.609375 18.992188 11.746094 18.640625 C 12.34375 17.109375 13.109375 15.582031 13.851562 14.101562 L 14.191406 13.425781 C 14.636719 12.53125 15.195312 11.660156 15.738281 10.820312 C 16.230469 10.054688 16.742188 9.261719 17.191406 8.421875 C 17.453125 7.921875 17.335938 7.300781 16.898438 6.914062 Z M 16.898438 6.914062 "/>
</g>
</svg>
